<svg width="40" height="60" viewBox="0 0 40 60" fill="none" xmlns="http://www.w3.org/2000/svg">
<g clip-path="url(#clip0)">
<path d="M10.0019 60C15.5208 60 19.9999 55.52 19.9999 50V40H10.0019C4.48301 40 0.00390625 44.48 0.00390625 50C0.00390625 55.52 4.48301 60 10.0019 60Z" fill="#0ACF83"/>
<path d="M0.00390625 30C0.00390625 24.48 4.48301 20 10.0019 20H19.9999V40H10.0019C4.48301 40 0.00390625 35.52 0.00390625 30Z" fill="#A259FF"/>
<path d="M0.00488281 10C0.00488281 4.48 4.48399 0 10.0029 0H20.0009V20H10.0029C4.48399 20 0.00488281 15.52 0.00488281 10Z" fill="#F24E1E"/>
<path d="M20 0H29.998C35.5169 0 39.996 4.48 39.996 10C39.996 15.52 35.5169 20 29.998 20H20V0Z" fill="#FF7262"/>
<path d="M39.996 30C39.996 35.52 35.5169 40 29.998 40C24.4791 40 20 35.52 20 30C20 24.48 24.4791 20 29.998 20C35.5169 20 39.996 24.48 39.996 30Z" fill="#1ABCFE"/>
</g>
<defs>
<clipPath id="clip0">
<rect width="40" height="60" fill="white"/>
</clipPath>
</defs>
</svg>
