<svg width="60" height="58" viewBox="0 0 60 58" fill="none" xmlns="http://www.w3.org/2000/svg">
<path d="M30 0.250977C13.425 0.250977 0 13.451 0 29.731C0 42.7585 8.595 53.806 20.5125 57.701C22.0125 57.9785 22.5625 57.066 22.5625 56.2835C22.5625 55.5835 22.5375 53.7285 22.525 51.271C14.18 53.0485 12.42 47.316 12.42 47.316C11.055 43.9135 9.0825 43.0035 9.0825 43.0035C6.365 41.176 9.2925 41.2135 9.2925 41.2135C12.305 41.4185 13.8875 44.251 13.8875 44.251C16.5625 48.7585 20.91 47.456 22.625 46.7035C22.895 44.796 23.6675 43.4985 24.525 42.761C17.8625 42.0235 10.86 39.4885 10.86 28.1935C10.86 24.976 12.0225 22.346 13.9475 20.2835C13.61 19.5385 12.5975 16.541 14.21 12.481C14.21 12.481 16.7225 11.691 22.46 15.5035C24.86 14.8485 27.41 14.5235 29.96 14.5085C32.51 14.5235 35.06 14.8485 37.46 15.5035C43.16 11.691 45.6725 12.481 45.6725 12.481C47.285 16.541 46.2725 19.5385 45.9725 20.2835C47.885 22.346 49.0475 24.976 49.0475 28.1935C49.0475 39.5185 42.035 42.011 35.36 42.736C36.41 43.621 37.385 45.4285 37.385 48.191C37.385 52.136 37.3475 55.306 37.3475 56.2635C37.3475 57.036 37.8725 57.9585 39.41 57.6635C51.4125 53.7935 60 42.7385 60 29.731C60 13.451 46.5675 0.250977 30 0.250977Z" fill="black"/>
</svg>
